# xmcd
#
# Track frame offsets:
#	300
#	16259
#	31287
#	46874
#	69960
#	87700
#	110757
#	130865
#	144572
#	162424
#	180960
#	197820
#
# Disc length: 2942 seconds
#
# Revision: 0
# Processed by: cddbd v1.5.2PL0 Copyright (c) Steve Scherf et al.
# Submitted via: audiograbber 1.82.01
#
DISCID=a20b7a0c
DTITLE=KEVIN WILLIAMS - ACOUSTIC SUNDAY
DYEAR=2010
DGENRE=Gospel
TTITLE0=KEVIN WILLIAMS - Nothing But The Blood
TTITLE1=KEVIN WILLIAMS - My Savior's Love
TTITLE2=KEVIN WILLIAMS - Blessed Assurance
TTITLE3=KEVIN WILLIAMS - Pass Me Not
TTITLE4=KEVIN WILLIAMS - Leaning On The Everlasting Arms
TTITLE5=KEVIN WILLIAMS - His Name Is Wonderful
TTITLE6=KEVIN WILLIAMS - Higher Ground
TTITLE7=KEVIN WILLIAMS - All Hail The Power Of Jesus Name
TTITLE8=KEVIN WILLIAMS - I'd Rather Have Jesus
TTITLE9=KEVIN WILLIAMS - At Calvary
TTITLE10=KEVIN WILLIAMS - Amazing Grace
TTITLE11=KEVIN WILLIAMS - Softly And Tenderly
EXTD=
EXTT0=
EXTT1=
EXTT2=
EXTT3=
EXTT4=
EXTT5=
EXTT6=
EXTT7=
EXTT8=
EXTT9=
EXTT10=
EXTT11=
PLAYORDER=
